Coordinates
version=1
nRows=16
nColumns=36
inDegrees=yes

Units are S.I. units (second, meters, Newtons, ...)
If the header above contains a line with 'inDegrees', this indicates whether rotational values are in degrees (yes) or radians (no).

endheader
time	pelvis_tilt	pelvis_list	pelvis_rotation	pelvis_tx	pelvis_ty	pelvis_tz	hip_flexion_r	hip_adduction_r	hip_rotation_r	knee_angle_r	knee_angle_r_beta	ankle_angle_r	subtalar_angle_r	mtp_angle_r	hip_flexion_l	hip_adduction_l	hip_rotation_l	knee_angle_l	knee_angle_l_beta	ankle_angle_l	subtalar_angle_l	mtp_angle_l	lumbar_extension	lumbar_bending	lumbar_rotation	arm_flex_r	arm_add_r	arm_rot_r	elbow_flex_r	pro_sup_r	arm_flex_l	arm_add_l	arm_rot_l	elbow_flex_l	pro_sup_l
      0.00000000	     -4.77450168	      2.26374239	     10.34836763	     -0.18280684	      0.91127992	     -0.24795912	     32.33675073	     -6.28574826	     -6.48632923	      1.65113575	      0.02881776	      1.69035194	     -5.72511638	     -4.83991188	     -9.79668452	      3.42604800	      2.51379234	     10.01646483	      0.17482029	     22.55034219	     12.95592788	     -4.83991188	     -6.23529090	     -4.03232349	    -19.07873717	    -21.28900803	    -10.95736192	      5.85416252	     28.09899748	    103.96508171	      8.40649462	     -9.54549834	    -10.80507056	     75.01484804	     99.13815230
      0.01000000	     -4.63042622	      2.00531781	     10.63940698	     -0.16793671	      0.90886164	     -0.24714526	     32.37584459	     -6.10042677	     -6.97745477	      2.94355981	      0.05137481	      1.58096703	     -6.54657550	     -4.86465288	    -10.40122407	      2.81125483	      2.69592076	     10.95205967	      0.19114950	     22.57041552	     12.62177190	     -4.86465288	     -6.24230023	     -3.65879838	    -19.13036573	    -21.43622682	    -10.85899811	      5.73799423	     27.75001121	    103.98501611	      8.39676756	     -9.26495979	    -10.97833980	     74.93845550	     99.22005115
      0.02000000	     -4.71832956	      1.72476825	     10.91556784	     -0.15309625	      0.90614673	     -0.24617525	     32.70912246	     -5.89302097	     -7.09408223	      4.33820148	      0.07571590	      0.75060412	     -8.16068126	     -4.95556668	    -10.66512732	      2.22533770	      2.97919555	     12.07073687	      0.21067410	     22.63262563	     12.06168577	     -4.95556668	     -5.95986830	     -3.32196432	    -19.27039501	    -21.47492908	    -10.68981468	      5.38723454	     27.24714272	    104.07980010	      8.22097038	     -8.99882380	    -11.32268400	     74.84344770	     99.56002007
      0.03000000	     -4.68570624	      1.41874247	     11.12083379	     -0.13803186	      0.90377145	     -0.24504395	     32.92052069	     -5.58465404	     -7.20071810	      5.82811979	      0.10171988	     -0.37066055	     -9.79167531	     -5.07008704	    -11.04916448	      1.59407642	      3.25060837	     13.18961127	      0.23020214	     22.35685821	     11.43769650	     -5.07008704	     -5.81237276	     -2.93148544	    -19.28806609	    -21.48361236	    -10.58398011	      5.21535662	     26.89168859	    104.22506853	      8.00486912	     -8.74939842	    -11.56826614	     74.71953059	     99.94821104
      0.04000000	     -4.54186265	      1.08333846	     11.25996118	     -0.12270046	      0.90176006	     -0.24375732	     33.07353285	     -5.21275532	     -7.58911972	      7.54326942	      0.13165489	     -1.29660478	    -10.54439908	     -5.09498821	    -11.46546348	      0.90517337	      3.39782010	     14.45788839	      0.25233776	     21.87895433	     10.94795115	     -5.09498821	     -5.78968627	     -2.47655883	    -19.19762306	    -21.43313703	    -10.49019127	      5.17844826	     26.64052908	    104.24708459	      7.72593838	     -8.51686179	    -11.69592367	     74.55397380	    100.00348508
      0.05000000	     -4.50228763	      0.69172065	     11.35190554	     -0.10723035	      0.89997607	     -0.24223922	     33.32068562	     -4.74252621	     -7.76237930	      9.25845922	      0.16159060	     -2.83353223	    -11.59467222	     -5.12239354	    -11.59161678	      0.19504666	      3.59369049	     16.03174249	      0.27980669	     21.09298941	     10.14212535	     -5.12239354	     -5.61508384	     -2.00174203	    -19.10321944	    -21.23237096	    -10.39226309	      5.15356091	     26.34632590	    104.28334180	      7.25571307	     -8.30664024	    -11.85521001	     74.30018169	    100.05475238
      0.06000000	     -4.61296326	      0.25655421	     11.34256954	     -0.09169813	      0.89847765	     -0.24030364	     33.55259727	     -4.01745721	     -6.79433030	     10.58901012	      0.18481309	     -6.33636294	    -15.02256788	     -5.23625408	    -11.50694586	     -0.42291441	      4.37761264	     17.65043924	      0.30805828	     19.62513550	      8.12620983	     -5.23625408	     -5.24649520	     -1.53993860	    -19.09518345	    -20.74872745	    -10.34034602	      5.50603175	     25.80405197	    104.55256590	      6.53334874	     -8.13819430	    -12.17362984	     74.01797152	    100.33957482
      0.07000000	     -4.52583417	     -0.23896471	     11.23060105	     -0.07603183	      0.89762902	     -0.23832223	     33.66665821	     -3.21035702	     -6.35325258	     12.17715784	      0.21253150	     -8.68031071	    -16.78606351	     -5.34135794	    -11.39473571	     -1.12317198	      4.85068361	     19.66595836	      0.34323572	     17.93059266	      6.59082451	     -5.34135794	     -5.11756896	     -0.94779205	    -18.88740980	    -20.21655615	    -10.32544966	      5.97524178	     25.43398088	    104.76631007	      5.82722554	     -8.00784643	    -12.31956790	     73.52698016	    100.52750400
      0.08000000	     -4.38368756	     -0.76437158	     11.05340721	     -0.06036127	      0.89734616	     -0.23624022	     33.69197477	     -2.30407728	     -5.75602313	     13.80070820	      0.24086780	    -10.77687105	    -18.51256868	     -5.44508175	    -11.12940364	     -1.80570296	      5.38041447	     22.00222547	      0.38401128	     15.78566080	      4.76081099	     -5.44508175	     -5.06576086	     -0.30318356	    -18.61582259	    -19.55530255	    -10.32763491	      6.52230374	     25.09199981	    104.91584596	      5.10224816	     -7.87205486	    -12.39814563	     72.88168254	    100.64908637
      0.09000000	     -4.19606065	     -1.46815223	     10.82283859	     -0.04464536	      0.89749178	     -0.23405632	     33.66141449	     -1.19389250	     -5.27752420	     15.49156429	      0.27037880	    -11.73317716	    -19.34497140	     -5.48471180	    -10.57112929	     -2.70353449	      5.58621686	     24.83478904	      0.43344884	     13.48005576	      3.44627928	     -5.48471180	     -5.03301441	      0.55468585	    -18.21323124	    -18.91983026	    -10.31461283	      6.78931940	     24.93719635	    104.95206683	      4.35181581	     -7.72064805	    -12.38456266	     72.07651570	    100.62696193
      0.10000000	     -3.72942868	     -2.00861750	     10.51592875	     -0.02932623	      0.89847986	     -0.23198852	     33.28846039	     -0.16335439	     -4.82084396	     17.22062518	      0.30055661	    -12.13237572	    -20.20131939	     -5.50701612	    -10.01707433	     -3.39053455	      5.77992223	     28.15074907	      0.49132326	     11.04539973	      2.29850152	     -5.50701612	     -5.47889320	      1.32469368	    -17.76246117	    -18.04228873	    -10.31543610	      7.01458380	     24.94368718	    104.97738917	      3.74461477	     -7.53971286	    -12.32845535	     71.16887208	    100.56714282
      0.11000000	     -3.48466689	     -2.74395358	     10.16941184	     -0.01412937	      0.89953961	     -0.22981066	     33.06442780	      1.07645590	     -4.31898931	     18.78918429	      0.32793313	    -12.32708631	    -21.27783465	     -5.53390309	     -8.89187895	     -4.19152275	      5.98386289	     31.87844654	      0.55638385	      7.97138446	      0.57073761	     -5.53390309	     -5.59396867	      2.23894460	    -17.20579259	    -17.17241878	    -10.37548839	      7.36817936	     24.95331970	    105.00944951	      3.08555009	     -7.35741140	    -12.18441617	     69.99820547	    100.49535377
      0.12000000	     -3.29788292	     -3.49256198	      9.80693900	      0.00074865	      0.90087182	     -0.22763628	     32.79450104	      2.33203816	     -3.92823026	     20.19573159	      0.35248201	    -12.20252720	    -22.26466540	     -5.56574387	     -7.40997428	     -4.92897899	      6.24702146	     35.95983431	      0.62761751	      4.49797038	     -1.44210953	     -5.56574387	     -5.70130366	      3.15022007	    -16.61211875	    -16.23044903	    -10.47426328	      7.82446785	     25.09708723	    105.04930293	      2.49044265	     -7.15294573	    -11.94326864	     68.60115150	    100.42803716
      0.13000000	     -3.11174239	     -3.95868532	      9.43442230	      0.01509934	      0.90259806	     -0.22565970	     32.38725586	      3.26422810	     -3.67981138	     21.43019705	      0.37402750	    -11.81955428	    -22.95262069	     -5.64142970	     -5.72469055	     -5.20943454	      6.66445767	     40.23464293	      0.70222699	      0.36123158	     -4.53635649	     -5.64142970	     -5.91580524	      3.74423528	    -15.93358391	    -15.22046100	    -10.59194423	      8.58709937	     25.38482953	    105.07011248	      2.06725331	     -7.01438304	    -11.52930524	     66.87437868	    100.48488769
      0.14000000	     -2.84431494	     -4.68728107	      9.14462868	      0.02924720	      0.90446557	     -0.22358367	     31.69618758	      4.43173654	     -3.79383820	     22.23425109	      0.38806089	    -10.78182129	    -23.34194920	     -5.66414595	     -3.75730877	     -6.01063262	      6.63236440	     44.86375829	      0.78302030	     -2.59018087	     -5.26977099	     -5.66414595	     -6.22163399	      4.62425776	    -15.41417848	    -14.07561420	    -10.66995734	      8.76913469	     25.84835343	    105.09464982	      1.47391408	     -6.77384863	    -11.42899884	     65.42852776	    100.43692102
      0.15000000	     -2.84356936	     -5.33704344	      8.93424072	      0.04292229	      0.90622733	     -0.22168552	     31.15135980	      5.40429519	     -4.04190103	     22.76314354	      0.39729180	     -9.70770286	    -23.37042252	     -5.68895577	     -1.32670819	     -6.58514654	      6.86270357	     49.50291469	      0.86398885	     -5.57141787	     -6.75075438	     -5.68895577	     -6.24144689	      5.37351930	    -14.91677849	    -12.99483287	    -10.77274707	      9.00016313	     26.52523833	    105.15293326	      0.97540485	     -6.52223071	    -11.23777509	     63.52131282	    100.40973399
